<svg xmlns="http://www.w3.org/2000/svg" xmlns:xlink="http://www.w3.org/1999/xlink" viewBox="0 0 560 420"><defs><style>.cls-1{isolation:isolate;}.cls-10,.cls-13,.cls-2{fill:#fff;}.cls-3,.cls-8{fill:#e5e5e5;}.cls-4{fill:#ffde83;}.cls-5{fill:none;}.cls-10,.cls-12,.cls-13,.cls-5,.cls-6{stroke:#3a3836;}.cls-10,.cls-12,.cls-5{stroke-linecap:round;stroke-linejoin:round;}.cls-10,.cls-13,.cls-5,.cls-6{stroke-width:2px;}.cls-6{fill:#fd8753;}.cls-13,.cls-6{stroke-miterlimit:10;}.cls-7{fill:url(#linear-gradient);}.cls-8{mix-blend-mode:multiply;}.cls-9{fill:#a2ecc2;}.cls-11{fill:#3a3836;}.cls-12{fill:#d1dafa;stroke-width:1.68px;}</style><linearGradient id="linear-gradient" x1="264.94" y1="244.12" x2="285.27" y2="244.12" gradientTransform="matrix(0.88, 0.14, -0.16, 0.77, 70.24, 22.36)" gradientUnits="userSpaceOnUse"><stop offset="0" stop-color="#ff6d37"/><stop offset="0.54" stop-color="#fa9139"/><stop offset="1" stop-color="#f7ac3b"/></linearGradient></defs><g class="cls-1"><g id="Layer_1" data-name="Layer 1"><path class="cls-2" d="M387.35,320.39,387.3,374s-4.07,26.12-31.38,13.13c0,0-8.5-4.54-7.89-31.58l-2.18-33L341.21,374s-5,20.89-23.84,16.36c0,0-19.58-.3-12.8-45.68l2.89-37.53H216.91l-5-2.84V291.76l2.89-2.53,13.55-.47.5-5.51-12-73.45h94.84L303.13,197l-5.66-20.4s-2.63-14.91,14-19.87,22.88,23.87,22.88,23.87-6.82-32.78,25.16-54.43,62.62,5.1,62.62,5.1,26.6,21.91,15.68,56.21l27.08.34,6.71,4.24,2.42,4.89,3.13,73s-2.37,12.72-12.26,9.21l-3,17.33s-6.66,21.86-35.94,23.92Z"/><path class="cls-3" d="M419.41,274.62A69.41,69.41,0,0,0,434,260.21l6.39,2.62S431.33,274.71,419.41,274.62Z"/><path class="cls-4" d="M226.09,202.16,214.16,174a81.73,81.73,0,1,0-15,20.62Z"/><path class="cls-5" d="M335.48,160.57a47.72,47.72,0,0,0-1,14.34,53,53,0,1,0,13.85-39.52S339.15,144.44,335.48,160.57Z"/><path class="cls-5" d="M351,209.63c40.37,2.51,45.77-22.85,46.47-33.55a19.08,19.08,0,0,0-2.19-10.91c-3.09-5.72-13.08-12.92-34.18-13-12,0-15,0-21.83.22"/><line class="cls-5" x1="398.5" y1="113.32" x2="398.1" y2="119.16"/><circle class="cls-6" cx="398.38" cy="105.18" r="7.51"/><path class="cls-5" d="M338.12,320.12c2.1,0,8.5-.3,8.58,3.74l2,48.27a19.34,19.34,0,1,0,38.67,0l0-51.74H426a38.85,38.85,0,0,0,38.9-38.6c.12-26-5.23-60.68-28.78-89.74"/><path class="cls-5" d="M306.83,308.37l-3.7,59.54c0,11.42,6.95,23.12,18.4,23,11.27-.14,18.84-8.14,20.35-20.58l4-47.79"/><rect class="cls-5" x="211.91" y="288.76" width="152.6" height="18.44" rx="5"/><polygon class="cls-5" points="341.67 283.25 228.85 283.25 216.85 209.8 329.67 209.8 341.67 283.25"/><polyline class="cls-5" points="341.67 283.25 355.92 283.25 355.92 288.76"/><line class="cls-5" x1="228.85" y1="283.25" x2="228.85" y2="288.76"/><path class="cls-5" d="M410,219.16A36.24,36.24,0,0,0,408.42,232C393.33,253.17,373,256.24,360,255.63A18.54,18.54,0,0,0,342,267l-2.13,5.14"/><path class="cls-5" d="M359.51,288.76s45.06,8.61,74.45-28.55c0,0,14,9.06,29.49-1.77"/><path class="cls-5" d="M399.23,222.89a59.65,59.65,0,0,0,0,18.93"/><path class="cls-5" d="M426,268.93s18.57,11.54,37.41-2.47"/><path class="cls-5" d="M311.69,209.8s-10.28-7.82-14.22-33.21a17.29,17.29,0,0,1,17.12-19.87h-1a17.16,17.16,0,0,1,16.49,12.09c.8,2.64,2.58,7.65,5.11,13.86"/><path class="cls-5" d="M355.92,213.88s-1.49,20.46-3.13,42.84"/><path class="cls-5" d="M352.79,256.72c-9.83-19.65-5.83-51.2-5.83-51.2"/><ellipse class="cls-7" cx="275.24" cy="246.56" rx="9.03" ry="10.35" transform="translate(-38.9 51.98) rotate(-10.08)"/><ellipse class="cls-5" cx="275.24" cy="246.56" rx="9.03" ry="10.35" transform="translate(-38.9 51.98) rotate(-10.08)"/><path class="cls-5" d="M387.35,320.39h92.82a8.11,8.11,0,0,1,8.11,8.11v13.56a8.11,8.11,0,0,1-8.11,8.11H387.35a0,0,0,0,1,0,0V320.39A0,0,0,0,1,387.35,320.39Z"/><path class="cls-5" d="M437.81,187.47H462a12.33,12.33,0,0,1,12.31,11.82l2.86,69a12.32,12.32,0,0,1-12.32,12.83h0"/><rect class="cls-8" x="77.93" y="372.75" width="66.87" height="21.98" rx="10.99"/><line class="cls-5" x1="303.13" y1="374.04" x2="82.26" y2="374.04"/><line class="cls-5" x1="110.77" y1="374.04" x2="91.85" y2="374.04"/><path class="cls-9" d="M143.08,272.52c0-.28,0-.57,0-.86A25.51,25.51,0,0,0,94.31,261.2a25.43,25.43,0,0,0-39.93,13.25,20.64,20.64,0,0,0-15.45,20c0,11.41,9.56,19.49,20.94,19.49,1,0,2-.06,2.93-.15l6.46.27h70.5a6.84,6.84,0,0,0,1.82-.26l.75,0a20.66,20.66,0,0,0,.75-41.3Z"/><path class="cls-10" d="M121.9,383.51H84.2a8,8,0,0,1-7.92-7.32l-3.74-46.48h61l-3.74,46.48A8,8,0,0,1,121.9,383.51Z"/><path class="cls-10" d="M132.34,344.49H73.77a3,3,0,0,1,0-6.08h58.57a3,3,0,0,1,0,6.08Z"/><path class="cls-11" d="M132.09,348l.25-3.49-58.41-.44Z"/><path class="cls-5" d="M103.93,290.05v39"/><path class="cls-5" d="M103.93,308.05l13-10"/><path class="cls-5" d="M103.93,298.05l-26-12"/><path class="cls-5" d="M121.28,295.56l2.44-1.7"/><path class="cls-5" d="M103.93,287.05v-10"/><line class="cls-5" x1="387.39" y1="372.13" x2="467.26" y2="372.13"/><path class="cls-6" d="M119.76,89a7.18,7.18,0,1,0-5.5-8.54A7.18,7.18,0,0,0,119.76,89Z"/><path class="cls-5" d="M123.94,88.7l1.74,5.11"/><circle class="cls-10" cx="144.81" cy="140.85" r="50.57"/><path class="cls-5" d="M184.66,109.19c-14.69-.74-27.34,13.45-28.26,31.71s9.24,33.59,23.93,34.33"/><path class="cls-5" d="M139.72,139.73a7.58,7.58,0,1,0-7.95,7.18A7.58,7.58,0,0,0,139.72,139.73Z"/><line class="cls-5" x1="473.65" y1="372.13" x2="486.17" y2="372.13"/><polygon class="cls-12" points="206.64 118.8 234.6 104.12 237.97 113.14 208.01 121.9 206.64 118.8"/><polygon class="cls-12" points="210.25 130.34 247.15 124.86 247.93 134.46 210.72 133.69 210.25 130.34"/><polygon class="cls-12" points="209.36 143.47 232.84 150.22 229.09 159.09 208.22 146.67 209.36 143.47"/><path class="cls-5" d="M431.61,183.64a7.58,7.58,0,1,0-7.95,7.19A7.58,7.58,0,0,0,431.61,183.64Z"/><path class="cls-8" d="M355.92,226.75s20.3,7.77,38.56-2.52l-19.28-1.34-18.28-7.49Z"/><path class="cls-13" d="M479.77,134.59l7,2.29-7,2.28-2.28,7-2.28-7-7-2.28,7-2.29,2.28-7Z"/><path class="cls-13" d="M260.26,339.17l7,2.28-7,2.28-2.28,7-2.28-7-7-2.28,7-2.28,2.28-7Z"/><line class="cls-5" x1="333.67" y1="234.29" x2="352.79" y2="256.72"/></g></g></svg>